<svg xmlns="http://www.w3.org/2000/svg" width="27" height="30" viewBox="0 0 27 30">
    <g fill="none" fill-rule="evenodd">
        <g fill="#FFF">
            <g>
                <g>
                    <g>
                        <path d="M13.502 0l.13.009.118.024c.233.063.435.213.564.422l.058.11.026.074 12.528 28.048c.037.088.061.18.074.304.004.274-.068.497-.23.687-.18.204-.437.32-.718.32l-.122-.006-.135-.027-12.27-3.504-12.323 3.504c-.275.076-.564.025-.794-.131l-.094-.074-.086-.086c-.178-.206-.257-.475-.218-.753l.023-.12.046-.128L12.594.66c.063-.192.181-.356.349-.478l.107-.068.126-.057.072-.023c.082-.023.168-.035.254-.035zm1.97 7.692l2.503 16.693c.01.39-.152.72-.454.906l-.106.057-.119.043-.344.098 7.411 2.106-8.892-19.903zm-3.944-.01L2.632 27.595l7.41-2.106-.34-.098c-.37-.106-.635-.423-.679-.808l-.006-.117.01-.12 2.501-16.664zm1.97-.379l-2.476 16.504 2.446.709 2.507-.713-2.476-16.5z" transform="translate(-26 -12) translate(0 -3) translate(11) translate(15 15)"/>
                    </g>
                </g>
            </g>
        </g>
    </g>
</svg>
